# xmcd
# Track frame offsets:
# 150
# 12882
# 29875
# 40562
# 52875
# 64815
# 75980
# 85537
# 98630
# 111005
# 122212
# 131437
# 144040
# 158490
#
# Disc length: 2296 seconds
# Revision: 2
# Processed by: cddbd v1.5.2PL0 Copyright (c) Steve Scherf et al.
# Submitted via: VisiTrax 2.11.3.279 - For more info visit www.synapsa.com
#
DISCID=9c08f60e
DTITLE=Slim Dusty - Country Livin'
DYEAR=1987
DGENRE=Australian Country
TTITLE0=City Brother
TTITLE1=Ah, Forget It
TTITLE2=Teenage Country Style
TTITLE3=Boomerang
TTITLE4=There's A Rainbow 'Round My Memories
TTITLE5=Night Watch Blues
TTITLE6=Redwing
TTITLE7=Country Livin'
TTITLE8=My People
TTITLE9=Movin' Away
TTITLE10=The Cunnin' Roo Shooter
TTITLE11=We'll Have To Stick Together
TTITLE12=Tiny Blue Shoe
TTITLE13=God Will Prevail
EXTD=1987 EMI Music Australia 1995 EMI Music Australia
EXTT0=
EXTT1=
EXTT2=
EXTT3=
EXTT4=
EXTT5=
EXTT6=
EXTT7=
EXTT8=
EXTT9=
EXTT10=
EXTT11=
EXTT12=
EXTT13=
PLAYORDER=
